<mxfile host="app.diagrams.net" modified="2023-04-02T15:51:48.201Z" agent="Mozilla/5.0 (X11; Linux x86_64) AppleWebKit/537.36 (KHTML, like Gecko) Chrome/111.0.0.0 Safari/537.36" etag="QcmOm-B7upajTAwgoGQj" version="21.1.1" type="device">
  <diagram name="Page-1" id="9f46799a-70d6-7492-0946-bef42562c5a5">
    <mxGraphModel dx="1181" dy="1086" grid="1" gridSize="10" guides="1" tooltips="1" connect="1" arrows="1" fold="1" page="1" pageScale="1" pageWidth="1100" pageHeight="850" background="none" math="0" shadow="0">
      <root>
        <mxCell id="0" />
        <mxCell id="1" parent="0" />
        <mxCell id="8aK8nWyWI6saDwJPmtVD-2" value="LIGHT" style="swimlane;startSize=20;horizontal=1;containerType=tree;newEdgeStyle={&quot;edgeStyle&quot;:&quot;elbowEdgeStyle&quot;,&quot;startArrow&quot;:&quot;none&quot;,&quot;endArrow&quot;:&quot;none&quot;};" vertex="1" parent="1">
          <mxGeometry x="20" y="40" width="660" height="630" as="geometry" />
        </mxCell>
        <mxCell id="8aK8nWyWI6saDwJPmtVD-15" style="edgeStyle=elbowEdgeStyle;rounded=0;orthogonalLoop=1;jettySize=auto;html=1;startArrow=none;endArrow=none;exitX=1;exitY=1;exitDx=0;exitDy=0;entryX=0.015;entryY=0.175;entryDx=0;entryDy=0;entryPerimeter=0;" edge="1" parent="8aK8nWyWI6saDwJPmtVD-2" source="8aK8nWyWI6saDwJPmtVD-5" target="8aK8nWyWI6saDwJPmtVD-11">
          <mxGeometry relative="1" as="geometry" />
        </mxCell>
        <mxCell id="8aK8nWyWI6saDwJPmtVD-16" style="edgeStyle=elbowEdgeStyle;rounded=0;orthogonalLoop=1;jettySize=auto;html=1;startArrow=none;endArrow=none;exitX=1;exitY=0;exitDx=0;exitDy=0;entryX=-0.008;entryY=0.138;entryDx=0;entryDy=0;entryPerimeter=0;" edge="1" parent="8aK8nWyWI6saDwJPmtVD-2" source="8aK8nWyWI6saDwJPmtVD-5" target="8aK8nWyWI6saDwJPmtVD-9">
          <mxGeometry relative="1" as="geometry" />
        </mxCell>
        <mxCell id="8aK8nWyWI6saDwJPmtVD-21" style="edgeStyle=elbowEdgeStyle;rounded=0;orthogonalLoop=1;jettySize=auto;html=1;startArrow=none;endArrow=none;exitX=0;exitY=1;exitDx=0;exitDy=0;entryX=0.006;entryY=0.167;entryDx=0;entryDy=0;entryPerimeter=0;" edge="1" parent="8aK8nWyWI6saDwJPmtVD-2" source="8aK8nWyWI6saDwJPmtVD-5" target="8aK8nWyWI6saDwJPmtVD-20">
          <mxGeometry relative="1" as="geometry" />
        </mxCell>
        <mxCell id="8aK8nWyWI6saDwJPmtVD-28" style="edgeStyle=elbowEdgeStyle;rounded=0;orthogonalLoop=1;jettySize=auto;html=1;startArrow=none;endArrow=none;exitX=0;exitY=0.75;exitDx=0;exitDy=0;entryX=0.242;entryY=0.013;entryDx=0;entryDy=0;entryPerimeter=0;" edge="1" parent="8aK8nWyWI6saDwJPmtVD-2" source="8aK8nWyWI6saDwJPmtVD-5" target="8aK8nWyWI6saDwJPmtVD-26">
          <mxGeometry relative="1" as="geometry" />
        </mxCell>
        <UserObject label="MCU" treeRoot="1" id="8aK8nWyWI6saDwJPmtVD-5">
          <mxCell style="whiteSpace=wrap;html=1;align=center;treeFolding=1;treeMoving=1;newEdgeStyle={&quot;edgeStyle&quot;:&quot;elbowEdgeStyle&quot;,&quot;startArrow&quot;:&quot;none&quot;,&quot;endArrow&quot;:&quot;none&quot;};" vertex="1" parent="8aK8nWyWI6saDwJPmtVD-2">
            <mxGeometry x="150" y="110" width="280" height="250" as="geometry" />
          </mxCell>
        </UserObject>
        <mxCell id="8aK8nWyWI6saDwJPmtVD-9" value="I2C" style="shape=umlFrame;whiteSpace=wrap;html=1;pointerEvents=0;" vertex="1" parent="8aK8nWyWI6saDwJPmtVD-2">
          <mxGeometry x="500" y="220" width="130" height="80" as="geometry" />
        </mxCell>
        <mxCell id="8aK8nWyWI6saDwJPmtVD-10" value="TEMP&lt;br&gt;SENSOR" style="text;html=1;align=center;verticalAlign=middle;resizable=0;points=[];autosize=1;strokeColor=none;fillColor=none;" vertex="1" parent="8aK8nWyWI6saDwJPmtVD-2">
          <mxGeometry x="540" y="255" width="70" height="40" as="geometry" />
        </mxCell>
        <mxCell id="8aK8nWyWI6saDwJPmtVD-11" value="I2C" style="shape=umlFrame;whiteSpace=wrap;html=1;pointerEvents=0;" vertex="1" parent="8aK8nWyWI6saDwJPmtVD-2">
          <mxGeometry x="500" y="355" width="130" height="80" as="geometry" />
        </mxCell>
        <mxCell id="8aK8nWyWI6saDwJPmtVD-12" value="PRESSURE&lt;br&gt;SENSOR" style="text;html=1;align=center;verticalAlign=middle;resizable=0;points=[];autosize=1;strokeColor=none;fillColor=none;" vertex="1" parent="8aK8nWyWI6saDwJPmtVD-2">
          <mxGeometry x="520" y="390" width="90" height="40" as="geometry" />
        </mxCell>
        <mxCell id="8aK8nWyWI6saDwJPmtVD-20" value="ADC" style="shape=umlFrame;whiteSpace=wrap;html=1;pointerEvents=0;" vertex="1" parent="8aK8nWyWI6saDwJPmtVD-2">
          <mxGeometry x="180" y="410" width="160" height="90" as="geometry" />
        </mxCell>
        <mxCell id="8aK8nWyWI6saDwJPmtVD-22" value="CHARGING&lt;br&gt;CHIP" style="text;html=1;align=center;verticalAlign=middle;resizable=0;points=[];autosize=1;strokeColor=none;fillColor=none;" vertex="1" parent="8aK8nWyWI6saDwJPmtVD-2">
          <mxGeometry x="240" y="440" width="90" height="40" as="geometry" />
        </mxCell>
        <mxCell id="8aK8nWyWI6saDwJPmtVD-23" value="???" style="shape=umlFrame;whiteSpace=wrap;html=1;pointerEvents=0;" vertex="1" parent="8aK8nWyWI6saDwJPmtVD-2">
          <mxGeometry x="170" y="555" width="130" height="40" as="geometry" />
        </mxCell>
        <mxCell id="8aK8nWyWI6saDwJPmtVD-25" value="" style="endArrow=none;html=1;rounded=0;exitX=0;exitY=0.05;exitDx=0;exitDy=0;exitPerimeter=0;entryX=0.094;entryY=1;entryDx=0;entryDy=0;entryPerimeter=0;" edge="1" parent="8aK8nWyWI6saDwJPmtVD-2" source="8aK8nWyWI6saDwJPmtVD-23" target="8aK8nWyWI6saDwJPmtVD-20">
          <mxGeometry width="50" height="50" relative="1" as="geometry">
            <mxPoint x="500" y="530" as="sourcePoint" />
            <mxPoint x="550" y="480" as="targetPoint" />
          </mxGeometry>
        </mxCell>
        <mxCell id="8aK8nWyWI6saDwJPmtVD-24" value="BATTERY" style="text;html=1;align=center;verticalAlign=middle;resizable=0;points=[];autosize=1;strokeColor=none;fillColor=none;" vertex="1" parent="8aK8nWyWI6saDwJPmtVD-2">
          <mxGeometry x="225" y="560" width="80" height="30" as="geometry" />
        </mxCell>
        <mxCell id="8aK8nWyWI6saDwJPmtVD-26" value="SPI" style="shape=umlFrame;whiteSpace=wrap;html=1;pointerEvents=0;" vertex="1" parent="8aK8nWyWI6saDwJPmtVD-2">
          <mxGeometry x="30" y="475" width="120" height="80" as="geometry" />
        </mxCell>
        <mxCell id="8aK8nWyWI6saDwJPmtVD-29" value="connector" style="rounded=0;whiteSpace=wrap;html=1;" vertex="1" parent="8aK8nWyWI6saDwJPmtVD-2">
          <mxGeometry x="310" y="590" width="80" height="40" as="geometry" />
        </mxCell>
        <mxCell id="8aK8nWyWI6saDwJPmtVD-33" value="" style="endArrow=none;html=1;rounded=0;exitX=0.25;exitY=0;exitDx=0;exitDy=0;entryX=0.9;entryY=1.033;entryDx=0;entryDy=0;entryPerimeter=0;" edge="1" parent="8aK8nWyWI6saDwJPmtVD-2" source="8aK8nWyWI6saDwJPmtVD-29" target="8aK8nWyWI6saDwJPmtVD-20">
          <mxGeometry width="50" height="50" relative="1" as="geometry">
            <mxPoint x="500" y="510" as="sourcePoint" />
            <mxPoint x="550" y="460" as="targetPoint" />
          </mxGeometry>
        </mxCell>
        <mxCell id="8aK8nWyWI6saDwJPmtVD-17" value="serial" style="shape=umlFrame;whiteSpace=wrap;html=1;pointerEvents=0;" vertex="1" parent="8aK8nWyWI6saDwJPmtVD-2">
          <mxGeometry x="550" y="570" width="110" height="60" as="geometry" />
        </mxCell>
        <mxCell id="8aK8nWyWI6saDwJPmtVD-18" value="LIGHT&lt;br&gt;TRANSCIEVER" style="text;html=1;align=center;verticalAlign=middle;resizable=0;points=[];autosize=1;strokeColor=none;fillColor=none;" vertex="1" parent="8aK8nWyWI6saDwJPmtVD-2">
          <mxGeometry x="560" y="595" width="110" height="40" as="geometry" />
        </mxCell>
        <mxCell id="8aK8nWyWI6saDwJPmtVD-19" style="edgeStyle=elbowEdgeStyle;rounded=0;orthogonalLoop=1;jettySize=auto;html=1;startArrow=none;endArrow=none;entryX=0.169;entryY=0;entryDx=0;entryDy=0;entryPerimeter=0;exitX=0.75;exitY=1;exitDx=0;exitDy=0;" edge="1" parent="8aK8nWyWI6saDwJPmtVD-2" source="8aK8nWyWI6saDwJPmtVD-5" target="8aK8nWyWI6saDwJPmtVD-17">
          <mxGeometry relative="1" as="geometry">
            <mxPoint x="410" y="410" as="sourcePoint" />
            <Array as="points">
              <mxPoint x="410" y="470" />
            </Array>
          </mxGeometry>
        </mxCell>
        <mxCell id="8aK8nWyWI6saDwJPmtVD-27" value="FLASH" style="text;html=1;align=center;verticalAlign=middle;resizable=0;points=[];autosize=1;strokeColor=none;fillColor=none;" vertex="1" parent="1">
          <mxGeometry x="90" y="555" width="60" height="30" as="geometry" />
        </mxCell>
      </root>
    </mxGraphModel>
  </diagram>
</mxfile>
